<svg width="23" height="23" viewBox="0 0 23 23" fill="none" xmlns="http://www.w3.org/2000/svg">
<g clip-path="url(#clip0_1331_438)">
<path d="M22.0417 18.2083C22.0417 18.7167 21.8398 19.2042 21.4803 19.5636C21.1209 19.9231 20.6334 20.125 20.125 20.125H2.87504C2.36671 20.125 1.8792 19.9231 1.51975 19.5636C1.16031 19.2042 0.958374 18.7167 0.958374 18.2083V7.66667C0.958374 7.15833 1.16031 6.67082 1.51975 6.31138C1.8792 5.95193 2.36671 5.75 2.87504 5.75H6.70837L8.62504 2.875H14.375L16.2917 5.75H20.125C20.6334 5.75 21.1209 5.95193 21.4803 6.31138C21.8398 6.67082 22.0417 7.15833 22.0417 7.66667V18.2083Z" stroke="#0090FF" stroke-width="2.5" stroke-linecap="round" stroke-linejoin="round"/>
<path d="M11.5 16.2917C13.6171 16.2917 15.3334 14.5754 15.3334 12.4583C15.3334 10.3412 13.6171 8.625 11.5 8.625C9.38295 8.625 7.66671 10.3412 7.66671 12.4583C7.66671 14.5754 9.38295 16.2917 11.5 16.2917Z" stroke="#0090FF" stroke-width="2.5" stroke-linecap="round" stroke-linejoin="round"/>
</g>
<defs>
<clipPath id="clip0_1331_438">
<rect width="23" height="23" fill="white"/>
</clipPath>
</defs>
</svg>
