<svg width="30" height="30" viewBox="0 0 30 30" fill="none" xmlns="http://www.w3.org/2000/svg">
<path d="M13.75 5.00004H5C4.33696 5.00004 3.70107 5.26343 3.23223 5.73227C2.76339 6.20111 2.5 6.837 2.5 7.50004V25C2.5 25.6631 2.76339 26.299 3.23223 26.7678C3.70107 27.2366 4.33696 27.5 5 27.5H22.5C23.163 27.5 23.7989 27.2366 24.2678 26.7678C24.7366 26.299 25 25.6631 25 25V16.25M23.125 3.12504C23.6223 2.62776 24.2967 2.34839 25 2.34839C25.7033 2.34839 26.3777 2.62776 26.875 3.12504C27.3723 3.62232 27.6517 4.29678 27.6517 5.00004C27.6517 5.7033 27.3723 6.37776 26.875 6.87504L15 18.75L10 20L11.25 15L23.125 3.12504Z" stroke="#F3F3F3" stroke-width="1.5" stroke-linecap="round" stroke-linejoin="round"/>
</svg>
