<svg width="16" height="16" viewBox="0 0 16 16" fill="none" xmlns="http://www.w3.org/2000/svg">
<path d="M8.06927 12.3667L8.0026 12.4333L7.92927 12.3667C4.7626 9.49333 2.66927 7.59333 2.66927 5.66667C2.66927 4.33333 3.66927 3.33333 5.0026 3.33333C6.02927 3.33333 7.02927 4 7.3826 4.90667H8.6226C8.97594 4 9.97594 3.33333 11.0026 3.33333C12.3359 3.33333 13.3359 4.33333 13.3359 5.66667C13.3359 7.59333 11.2426 9.49333 8.06927 12.3667ZM11.0026 2C9.8426 2 8.72927 2.54 8.0026 3.38667C7.27594 2.54 6.1626 2 5.0026 2C2.94927 2 1.33594 3.60667 1.33594 5.66667C1.33594 8.18 3.6026 10.24 7.03594 13.3533L8.0026 14.2333L8.96927 13.3533C12.4026 10.24 14.6693 8.18 14.6693 5.66667C14.6693 3.60667 13.0559 2 11.0026 2Z" fill="#F8F8F8"/>
</svg>
