<svg width="30" height="30" viewBox="0 0 30 30" fill="none" xmlns="http://www.w3.org/2000/svg">
<path fill-rule="evenodd" clip-rule="evenodd" d="M15 27.5C8.09625 27.5 2.5 21.9037 2.5 15C2.5 8.09625 8.09625 2.5 15 2.5C21.9037 2.5 27.5 8.09625 27.5 15C27.5 21.9037 21.9037 27.5 15 27.5ZM15 26C17.9174 26 20.7153 24.8411 22.7782 22.7782C24.8411 20.7153 26 17.9174 26 15C26 12.0826 24.8411 9.28473 22.7782 7.22183C20.7153 5.15892 17.9174 4 15 4C12.0826 4 9.28473 5.15892 7.22183 7.22183C5.15892 9.28473 4 12.0826 4 15C4 17.9174 5.15892 20.7153 7.22183 22.7782C9.28473 24.8411 12.0826 26 15 26ZM14.175 8.03875H15.825L15.7137 16.8638H14.2875L14.1775 8.03875H14.175ZM15 21.3412C14.8625 21.3429 14.726 21.3171 14.5986 21.2652C14.4712 21.2134 14.3555 21.1365 14.2582 21.0393C14.161 20.942 14.0841 20.8263 14.0323 20.6989C13.9804 20.5715 13.9546 20.435 13.9563 20.2975C13.9537 20.1597 13.979 20.0229 14.0305 19.8951C14.0821 19.7673 14.1589 19.6512 14.2563 19.5538C14.3537 19.4564 14.4698 19.3796 14.5976 19.328C14.7254 19.2765 14.8622 19.2512 15 19.2537C15.595 19.2537 16.0437 19.7038 16.0437 20.2975C16.0463 20.4353 16.021 20.5721 15.9695 20.6999C15.9179 20.8277 15.8411 20.9438 15.7437 21.0412C15.6463 21.1386 15.5302 21.2154 15.4024 21.267C15.2746 21.3185 15.1378 21.3438 15 21.3412Z" fill="black"/>
</svg>
