<svg width="29" height="28" viewBox="0 0 29 28" fill="none" xmlns="http://www.w3.org/2000/svg">
<path d="M8.74191 19.7803H20.2579C20.4883 19.7803 20.661 19.6744 20.7762 19.4624C20.8913 19.2505 20.8721 19.0482 20.7186 18.8555L17.5517 14.6069C17.4365 14.4528 17.283 14.3757 17.091 14.3757C16.8991 14.3757 16.7456 14.4528 16.6304 14.6069L13.6362 18.6243L11.5058 15.763C11.3906 15.6089 11.2371 15.5318 11.0451 15.5318C10.8532 15.5318 10.6996 15.6089 10.5845 15.763L8.28127 18.8555C8.12772 19.0482 8.10853 19.2505 8.22369 19.4624C8.33885 19.6744 8.51159 19.7803 8.74191 19.7803ZM6.4387 24.4046C5.80532 24.4046 5.26292 24.1784 4.81149 23.726C4.36083 23.2728 4.1355 22.7283 4.1355 22.0925V5.90751C4.1355 5.27167 4.36083 4.72716 4.81149 4.27398C5.26292 3.82157 5.80532 3.59537 6.4387 3.59537H22.5612C23.1945 3.59537 23.7369 3.82157 24.1884 4.27398C24.639 4.72716 24.8644 5.27167 24.8644 5.90751V22.0925C24.8644 22.7283 24.639 23.2728 24.1884 23.726C23.7369 24.1784 23.1945 24.4046 22.5612 24.4046H6.4387Z" fill="#0090FF"/>
</svg>
