<svg width="24" height="24" viewBox="0 0 24 24" fill="none" xmlns="http://www.w3.org/2000/svg">
<path d="M3.43427 10.788C2.8467 10.788 2.37056 10.6097 2.00586 10.2531C1.66142 9.89645 1.4892 9.44076 1.4892 8.886V1.90202C1.4892 1.32745 1.66142 0.87176 2.00586 0.534943C2.37056 0.178314 2.8467 0 3.43427 0H7.99304C8.35774 0 8.65152 0.118876 8.8744 0.356629C9.11753 0.574569 9.2391 0.851947 9.2391 1.18876C9.2391 1.5652 9.11753 1.86239 8.8744 2.08033C8.65152 2.29827 8.35774 2.40724 7.99304 2.40724H4.86268C4.5385 2.40724 4.31563 2.4964 4.19406 2.67472C4.09276 2.85303 4.04211 3.03135 4.04211 3.20966V3.47713C4.04211 3.69507 4.11302 3.87338 4.25485 4.01207C4.39668 4.13095 4.5689 4.19039 4.77151 4.19039H7.7499C8.15512 4.19039 8.46917 4.29936 8.69205 4.5173C8.91492 4.73524 9.02636 4.9928 9.02636 5.28999C9.02636 5.607 8.91492 5.87447 8.69205 6.09241C8.46917 6.31035 8.15512 6.41932 7.7499 6.41932H4.77151C4.54864 6.41932 4.36628 6.49857 4.22446 6.65707C4.10289 6.79576 4.04211 6.95426 4.04211 7.13258V7.54864C4.04211 7.78639 4.10289 7.98452 4.22446 8.14302C4.36628 8.30153 4.57903 8.38078 4.86268 8.38078H8.14499C8.48944 8.38078 8.78322 8.48975 9.02636 8.70769C9.26949 8.90581 9.39106 9.1931 9.39106 9.56954C9.39106 9.92617 9.26949 10.2135 9.02636 10.4314C8.78322 10.6295 8.48944 10.7484 8.14499 10.788H3.43427ZM6.71658 16.1077C6.71658 16.4445 6.60514 16.7318 6.38227 16.9696C6.17966 17.2271 5.86561 17.3559 5.44013 17.3559C5.05516 17.3559 4.74112 17.2371 4.49798 16.9993C4.27511 16.7814 4.16367 16.4842 4.16367 16.1077V15.4836C4.16367 14.9289 3.90028 14.6515 3.37349 14.6515H1.24606C0.820578 14.6515 0.50653 14.5326 0.303918 14.2949C0.101306 14.0571 0 13.7996 0 13.5222C0 13.1854 0.111437 12.908 0.33431 12.69C0.577444 12.4721 0.881361 12.3631 1.24606 12.3631H9.66458C10.0495 12.3631 10.3535 12.4721 10.5763 12.69C10.8195 12.908 10.941 13.1854 10.941 13.5222C10.941 13.7996 10.8296 14.0571 10.6067 14.2949C10.4041 14.5326 10.0901 14.6515 9.66458 14.6515H7.50677C6.97998 14.6515 6.71658 14.9388 6.71658 15.5133V16.1077Z" fill="url(#paint0_linear_626_2045)"/>
<path d="M20.1099 0.0297204C20.6974 0.0297204 21.1634 0.188222 21.5079 0.505225C21.8726 0.822228 22.0549 1.28783 22.0549 1.90202V4.69561C22.0549 5.25037 21.8624 5.69615 21.4775 6.03297C21.0925 6.36979 20.6366 6.53819 20.1099 6.53819H17.952C17.5671 6.53819 17.3239 6.62735 17.2226 6.80567C17.1416 6.96417 17.1011 7.12267 17.1011 7.28117V7.4892C17.1011 7.68733 17.1416 7.89536 17.2226 8.1133C17.3239 8.33124 17.5975 8.44021 18.0432 8.44021H21.1736C21.5383 8.44021 21.8321 8.54918 22.0549 8.76712C22.2981 8.98506 22.4196 9.28225 22.4196 9.6587C22.4196 10.0153 22.2981 10.3026 22.0549 10.5205C21.8321 10.7187 21.5383 10.8177 21.1736 10.8177H16.4324C15.9057 10.8177 15.4498 10.6493 15.0648 10.3125C14.6799 9.95589 14.4874 9.50019 14.4874 8.94544V6.12213C14.4874 5.54756 14.69 5.08196 15.0952 4.72533C15.5004 4.3687 15.9867 4.19039 16.554 4.19039H18.6207C18.9854 4.19039 19.2285 4.11114 19.3501 3.95264C19.4716 3.79413 19.5324 3.64554 19.5324 3.50685V3.23938C19.5324 3.04125 19.4716 2.86294 19.3501 2.70444C19.2488 2.52612 18.9752 2.43696 18.5295 2.43696H15.855C15.4903 2.43696 15.1864 2.32799 14.9433 2.11005C14.7001 1.89211 14.5786 1.59492 14.5786 1.21848C14.5786 0.881666 14.7001 0.604289 14.9433 0.386348C15.1864 0.148596 15.4903 0.0297204 15.855 0.0297204H20.1099ZM19.4716 22.1704C19.1474 21.893 18.8334 21.7444 18.5295 21.7246C18.2458 21.7246 17.9419 21.8633 17.6177 22.1407L15.8246 23.6861C15.5004 23.9437 15.1459 24.0427 14.7609 23.9833C14.3759 23.9238 14.0923 23.7752 13.9099 23.5375C13.6871 23.2403 13.5858 22.9332 13.606 22.6162C13.6465 22.2992 13.7985 22.0416 14.0619 21.8435C14.5279 21.5265 14.9939 21.2095 15.4599 20.8925C15.9462 20.5953 16.3514 20.2288 16.6756 19.7929C17.02 19.3768 17.1922 18.8419 17.1922 18.1881C17.1517 17.8909 17.2226 17.6333 17.405 17.4154C17.6076 17.2172 17.8406 17.0885 18.104 17.029C17.5164 16.8705 17.2226 16.4644 17.2226 15.8105V15.335C17.2226 15.0577 17.1517 14.8793 17.0099 14.8001C16.8883 14.701 16.6958 14.6515 16.4324 14.6515H14.305C13.8795 14.6515 13.5655 14.5326 13.3629 14.2949C13.1603 14.0571 13.059 13.7996 13.059 13.5222C13.059 13.1854 13.1704 12.908 13.3933 12.69C13.6364 12.4721 13.9403 12.3631 14.305 12.3631H22.7235C23.1085 12.3631 23.4124 12.4721 23.6353 12.69C23.8784 12.908 24 13.1854 24 13.5222C24 13.7996 23.8886 14.0571 23.6657 14.2949C23.4631 14.5326 23.149 14.6515 22.7235 14.6515H20.5657C20.0389 14.6515 19.7755 14.8893 19.7755 15.3648V15.8105C19.7755 16.1077 19.6945 16.3653 19.5324 16.5832C19.3703 16.821 19.1373 16.9696 18.8334 17.029C19.1171 17.1083 19.3399 17.247 19.502 17.4451C19.6641 17.663 19.735 17.9107 19.7148 18.1881C19.6742 18.9608 19.8769 19.5551 20.3226 19.9712C20.7886 20.3873 21.3458 20.7835 21.9941 21.16C22.1157 21.2392 22.2373 21.3086 22.3588 21.368C22.4804 21.4473 22.602 21.5265 22.7235 21.6058C23.0072 21.8039 23.149 22.0912 23.149 22.4676C23.149 22.8639 23.0275 23.1908 22.7843 23.4483C22.5412 23.6861 22.2373 23.7951 21.8726 23.7752C21.5281 23.7752 21.2242 23.6663 20.9608 23.4483L19.4716 22.1704Z" fill="url(#paint1_linear_626_2045)"/>
<defs>
<linearGradient id="paint0_linear_626_2045" x1="11.9952" y1="-9.53988" x2="11.9952" y2="48.4123" gradientUnits="userSpaceOnUse">
<stop stop-color="#0090FF"/>
<stop offset="1" stop-color="#145FCA"/>
</linearGradient>
<linearGradient id="paint1_linear_626_2045" x1="11.9952" y1="-9.53988" x2="11.9952" y2="48.4123" gradientUnits="userSpaceOnUse">
<stop stop-color="#0090FF"/>
<stop offset="1" stop-color="#145FCA"/>
</linearGradient>
</defs>
</svg>
