<svg width="16" height="16" viewBox="0 0 16 16" fill="none" xmlns="http://www.w3.org/2000/svg">
<path d="M11 15.923L5 13.823L1.042 15.353C0.786 15.4484 0.548333 15.4207 0.329 15.27C0.109667 15.1194 0 14.9074 0 14.634V2.40403C0 2.22536 0.0433334 2.06236 0.13 1.91503C0.216667 1.76769 0.342667 1.66536 0.508 1.60803L5 0.0770264L11 2.17703L14.958 0.647026C15.214 0.551693 15.4517 0.569693 15.671 0.701026C15.8903 0.83236 16 1.02836 16 1.28903V13.673C16 13.8644 15.947 14.0304 15.841 14.171C15.7357 14.3124 15.5937 14.4117 15.415 14.469L11 15.923ZM10.5 14.703V3.00303L5.5 1.25803V12.958L10.5 14.703ZM11.5 14.703L15 13.55V1.70003L11.5 3.00403V14.703ZM1 14.3L4.5 12.958V1.25803L1 2.45003V14.3Z" fill="black"/>
</svg>
