<svg width="8" height="14" viewBox="0 0 8 14" fill="none" xmlns="http://www.w3.org/2000/svg">
<path fill-rule="evenodd" clip-rule="evenodd" d="M7.70697 6.29302C7.89444 6.48055 7.99976 6.73486 7.99976 7.00002C7.99976 7.26519 7.89444 7.5195 7.70697 7.70702L2.04997 13.364C1.95772 13.4595 1.84738 13.5357 1.72537 13.5881C1.60337 13.6405 1.47215 13.6681 1.33937 13.6693C1.20659 13.6704 1.07491 13.6451 0.952016 13.5948C0.82912 13.5446 0.717467 13.4703 0.623574 13.3764C0.529682 13.2825 0.455429 13.1709 0.405148 13.048C0.354867 12.9251 0.329565 12.7934 0.330719 12.6606C0.331873 12.5278 0.359459 12.3966 0.411868 12.2746C0.464277 12.1526 0.540459 12.0423 0.635969 11.95L5.58597 7.00002L0.63597 2.05002C0.453812 1.86142 0.353018 1.60882 0.355296 1.34662C0.357575 1.08443 0.462743 0.833612 0.648152 0.648204C0.83356 0.462797 1.08437 0.357626 1.34657 0.355348C1.60877 0.35307 1.86137 0.453864 2.04997 0.636022L7.70697 6.29302Z" fill="white"/>
</svg>
