<svg width="16" height="16" viewBox="0 0 16 16" fill="none" xmlns="http://www.w3.org/2000/svg">
<path fill-rule="evenodd" clip-rule="evenodd" d="M6.87337 1.5H9.12671C9.27137 1.5 9.39737 1.5 9.51604 1.51867C9.74718 1.5557 9.96645 1.64631 10.1563 1.78325C10.3461 1.9202 10.5013 2.09968 10.6094 2.30733C10.6654 2.414 10.7047 2.53333 10.7507 2.67L10.8247 2.89333C10.8758 3.07478 10.9868 3.23355 11.1397 3.34373C11.2927 3.45392 11.4784 3.50901 11.6667 3.5H13.6667C13.7993 3.5 13.9265 3.55268 14.0203 3.64645C14.114 3.74021 14.1667 3.86739 14.1667 4C14.1667 4.13261 14.114 4.25979 14.0203 4.35355C13.9265 4.44732 13.7993 4.5 13.6667 4.5H2.33337C2.20077 4.5 2.07359 4.44732 1.97982 4.35355C1.88605 4.25979 1.83337 4.13261 1.83337 4C1.83337 3.86739 1.88605 3.74021 1.97982 3.64645C2.07359 3.55268 2.20077 3.5 2.33337 3.5H4.39337C4.57144 3.49573 4.74346 3.43451 4.88419 3.32533C5.02493 3.21615 5.12698 3.06475 5.17537 2.89333L5.25004 2.67C5.29537 2.53333 5.33471 2.414 5.39004 2.30733C5.49817 2.0996 5.65344 1.92007 5.84341 1.78312C6.03338 1.64617 6.25278 1.5556 6.48404 1.51867C6.60271 1.5 6.72871 1.5 6.87271 1.5M6.00471 3.5C6.05152 3.40832 6.09054 3.31288 6.12137 3.21467L6.18804 3.01467C6.24871 2.83267 6.26271 2.796 6.27671 2.76933C6.3127 2.70001 6.36443 2.64007 6.42776 2.59434C6.49108 2.54861 6.56424 2.51836 6.64137 2.506C6.72828 2.49866 6.81556 2.49666 6.90271 2.5H9.09604C9.28804 2.5 9.32804 2.50133 9.35737 2.50667C9.43444 2.51895 9.50756 2.54911 9.57088 2.59472C9.6342 2.64033 9.68597 2.70013 9.72204 2.76933C9.73604 2.796 9.75004 2.83267 9.81071 3.01533L9.87737 3.21533L9.90337 3.29C9.92937 3.36333 9.96004 3.43267 9.99404 3.5H6.00471Z" fill="black"/>
<path d="M3.94333 5.63328C3.93449 5.50094 3.87343 5.37753 3.7736 5.2902C3.67377 5.20287 3.54334 5.15878 3.41099 5.16762C3.27865 5.17646 3.15524 5.23751 3.06791 5.33734C2.98058 5.43717 2.93649 5.56761 2.94533 5.69995L3.25466 10.3346C3.31133 11.1893 3.35733 11.88 3.46533 12.4226C3.57799 12.986 3.76866 13.4566 4.16333 13.8253C4.55733 14.1946 5.03999 14.354 5.60999 14.428C6.15799 14.5 6.84999 14.5 7.70733 14.5H8.29333C9.14999 14.5 9.84266 14.5 10.3907 14.428C10.96 14.354 11.4427 14.1946 11.8373 13.8253C12.2313 13.4566 12.422 12.9853 12.5347 12.4226C12.6427 11.8806 12.688 11.1893 12.7453 10.3346L13.0547 5.69995C13.0635 5.56761 13.0194 5.43717 12.9321 5.33734C12.8447 5.23751 12.7213 5.17646 12.589 5.16762C12.4567 5.15878 12.3262 5.20287 12.2264 5.2902C12.1266 5.37753 12.0655 5.50094 12.0567 5.63328L11.75 10.2333C11.69 11.1313 11.6473 11.7566 11.554 12.2266C11.4627 12.6833 11.336 12.9246 11.154 13.0953C10.9713 13.266 10.722 13.3766 10.2607 13.4366C9.78533 13.4986 9.15866 13.5 8.25799 13.5H7.74199C6.84199 13.5 6.21533 13.4986 5.73933 13.4366C5.27799 13.3766 5.02866 13.266 4.84599 13.0953C4.66399 12.9246 4.53733 12.6833 4.44599 12.2273C4.35266 11.7566 4.30999 11.1313 4.24999 10.2326L3.94333 5.63328Z" fill="black"/>
<path d="M6.28332 6.83599C6.41522 6.82277 6.54696 6.86247 6.64959 6.94635C6.75223 7.03023 6.81735 7.15144 6.83066 7.28332L7.16399 10.6167C7.17375 10.7467 7.13231 10.8754 7.04851 10.9754C6.96471 11.0753 6.84518 11.1385 6.71541 11.1516C6.58564 11.1646 6.45591 11.1265 6.3539 11.0452C6.25188 10.964 6.18564 10.8461 6.16932 10.7167L5.83599 7.38332C5.82277 7.25143 5.86247 7.11969 5.94635 7.01705C6.03023 6.91442 6.15144 6.84929 6.28332 6.83599ZM9.71666 6.83599C9.84841 6.8493 9.96951 6.91433 10.0534 7.01681C10.1372 7.1193 10.177 7.25087 10.164 7.38266L9.83066 10.716C9.81413 10.8451 9.74787 10.9627 9.64597 11.0438C9.54407 11.1249 9.41458 11.163 9.28502 11.15C9.15546 11.1371 9.03606 11.0741 8.9522 10.9745C8.86835 10.8749 8.82665 10.7465 8.83599 10.6167L9.16932 7.28332C9.18263 7.15157 9.24766 7.03047 9.35015 6.94661C9.45263 6.86274 9.58487 6.82296 9.71666 6.83599Z" fill="black"/>
</svg>
