<svg width="48" height="63" viewBox="0 0 48 63" fill="none" xmlns="http://www.w3.org/2000/svg">
<path fill-rule="evenodd" clip-rule="evenodd" d="M30.6256 52.9094C40.1853 50.1772 47.1553 41.6845 47.1553 31.6309C47.1553 19.3699 36.7884 9.43032 24 9.43032C11.2117 9.43032 0.844727 19.3699 0.844727 31.6309C0.844727 41.7323 7.8812 50.2579 17.5111 52.948V60.1318C17.3771 60.123 17.2403 60.1185 17.1013 60.1185C15.4414 60.1185 14.0959 60.7635 14.0959 61.5592C14.0959 62.3549 15.4414 63 17.1013 63C18.7611 63 20.1067 62.3549 20.1067 61.5592L20.1067 61.5528V53.5191C21.3725 53.7245 22.6732 53.8315 24 53.8315C25.3746 53.8315 26.7212 53.7167 28.03 53.4965V61.5592C28.03 62.3549 29.3756 63 31.0354 63C32.6952 63 34.0408 62.3549 34.0408 61.5592C34.0408 60.7635 32.6952 60.1185 31.0354 60.1185C30.8964 60.1185 30.7596 60.123 30.6256 60.1318V52.9094Z" fill="#0090FF"/>
<path d="M26.9553 6.76563C25.8712 8.41148 24.0976 9.20585 22.9939 8.53991C21.8903 7.87397 21.8745 5.99989 22.9586 4.35404C24.0428 2.70819 26.9473 0.172093 28.6193 0C29.0265 1.55097 28.0395 5.11978 26.9553 6.76563Z" fill="#0090FF"/>
<ellipse cx="22.1557" cy="28.291" rx="0.683047" ry="0.654885" fill="white"/>
<ellipse cx="25.9807" cy="28.2911" rx="0.683047" ry="0.654885" fill="white"/>
</svg>
